<svg xmlns="http://www.w3.org/2000/svg" width="640" height="640" style=""><rect id="backgroundrect" width="100%" height="100%" x="0" y="0" fill="none" stroke="none"/>
  
<g class="currentLayer" style=""><title>Layer 1</title>

<path id="Selection #1" fill="#ddb613" stroke="#f8f8f2" stroke-width="0" d="M 319.00,39.80
           C 319.00,39.80 272.00,66.69 272.00,66.69
             272.00,66.69 179.00,120.01 179.00,120.01
             179.00,120.01 133.00,146.77 133.00,146.77
             133.00,146.77 94.00,169.27 94.00,169.27
             90.20,171.39 79.28,176.78 77.18,180.17
             75.74,183.06 76.99,191.22 77.18,195.00
             77.18,195.00 77.18,445.00 77.18,445.00
             76.99,448.82 75.68,457.01 77.18,459.88
             79.24,463.08 89.39,468.18 93.00,470.17
             93.00,470.17 129.00,491.00 129.00,491.00
             129.00,491.00 258.00,565.40 258.00,565.40
             258.00,565.40 300.00,589.85 300.00,589.85
             303.17,591.66 316.57,599.67 319.00,600.20
             322.92,601.06 326.80,597.76 330.00,595.81
             330.00,595.81 352.00,583.20 352.00,583.20
             352.00,583.20 414.00,547.57 414.00,547.57
             414.00,547.57 440.00,532.30 440.00,532.30
             440.00,532.30 476.00,511.43 476.00,511.43
             476.00,511.43 535.00,477.58 535.00,477.58
             535.00,477.58 554.00,466.60 554.00,466.60
             556.71,464.98 561.43,462.53 562.98,459.82
             564.20,457.67 564.00,454.43 564.00,452.00
             564.00,452.00 564.00,188.00 564.00,188.00
             564.00,185.57 564.20,182.33 562.98,180.18
             561.37,177.37 555.86,174.51 553.00,172.80
             553.00,172.80 530.00,159.58 530.00,159.58
             530.00,159.58 458.00,117.86 458.00,117.86
             458.00,117.86 422.00,97.36 422.00,97.36
             422.00,97.36 349.00,55.01 349.00,55.01
             349.00,55.01 331.00,44.80 331.00,44.80
             326.69,42.20 324.22,39.52 319.00,39.80 Z
           M 315.00,347.00
           C 310.28,350.88 297.75,363.83 294.00,365.26
             291.72,366.13 288.45,366.00 286.00,366.00
             286.00,366.00 248.00,366.00 248.00,366.00
             242.24,366.00 232.20,366.48 227.00,365.07
             218.08,362.66 208.61,354.98 205.79,346.00
             204.39,341.50 204.01,335.70 204.00,331.00
             204.00,331.00 204.00,281.00 204.00,281.00
             204.01,274.79 204.33,271.85 206.76,266.00
             207.82,263.46 210.87,259.18 210.93,257.00
             211.02,254.41 207.54,249.75 206.36,247.00
             204.59,242.91 204.06,238.42 204.00,234.00
             204.00,234.00 204.00,193.00 204.00,193.00
             204.03,175.47 209.13,172.33 220.58,160.72
             226.07,155.14 238.15,141.16 244.00,137.90
             252.41,133.22 253.82,134.68 262.00,133.72
             262.00,133.72 311.00,133.00 311.00,133.00
             320.54,133.02 320.98,133.27 321.00,142.00
             321.00,142.00 321.00,202.00 321.00,202.00
             321.01,209.22 320.85,211.85 329.00,212.00
             329.00,212.00 352.00,212.00 352.00,212.00
             354.56,212.01 357.60,211.80 359.91,213.02
             361.78,214.00 365.41,218.01 367.28,219.74
             370.73,222.94 384.10,236.47 385.40,240.00
             386.12,241.94 386.00,244.91 386.00,247.00
             386.00,247.00 386.00,386.00 386.00,386.00
             386.01,388.61 385.67,392.39 387.59,394.41
             389.49,396.39 391.05,395.12 395.08,399.12
             395.08,399.12 410.52,415.31 410.52,415.31
             416.57,421.60 419.87,422.58 420.00,432.00
             420.00,432.00 420.00,460.00 420.00,460.00
             420.00,462.50 420.38,467.30 418.26,469.01
             416.82,470.17 413.78,469.99 412.00,470.00
             412.00,470.00 388.00,470.00 388.00,470.00
             388.00,470.00 358.00,470.00 358.00,470.00
             354.28,470.00 347.18,470.47 344.00,469.02
             338.82,466.65 331.47,457.42 327.01,453.04
             319.45,445.62 315.02,444.70 315.00,434.00
             315.00,434.00 315.00,347.00 315.00,347.00 Z
           M 313.00,333.00
           C 313.00,333.00 313.00,141.00 313.00,141.00
             313.00,141.00 270.00,141.00 270.00,141.00
             265.19,141.01 260.70,141.33 256.00,142.51
             249.34,144.18 242.54,148.57 239.65,155.00
             237.59,159.58 238.00,166.01 238.00,171.00
             238.00,171.00 238.00,199.00 238.00,199.00
             237.99,205.04 236.50,211.12 238.51,217.00
             241.37,225.37 247.36,228.82 248.09,230.33
             249.60,233.47 245.31,234.67 241.25,241.00
             235.88,249.36 237.99,255.94 238.00,265.00
             238.00,265.00 238.00,308.00 238.00,308.00
             238.01,312.82 238.12,318.52 240.81,322.71
             246.72,331.91 257.86,333.88 268.00,334.00
             268.00,334.00 313.00,333.00 313.00,333.00 Z
           M 274.00,167.33
           C 276.63,167.04 282.29,166.45 284.49,168.02
             286.94,169.77 286.74,173.60 286.93,176.28
             286.93,176.28 286.93,200.00 286.93,200.00
             287.00,202.84 287.15,213.69 285.90,215.69
             284.93,217.23 283.65,217.57 281.98,218.17
             280.40,218.29 277.63,218.49 276.00,218.17
             260.28,217.62 264.00,201.26 264.00,190.00
             264.00,185.56 263.33,175.80 265.45,172.21
             267.36,169.00 270.63,168.14 274.00,167.33 Z
           M 323.00,219.00
           C 323.00,219.00 323.00,435.00 323.00,435.00
             323.00,435.00 385.00,435.00 385.00,435.00
             385.00,435.00 385.00,405.00 385.00,405.00
             385.00,405.00 362.00,405.00 362.00,405.00
             358.82,404.99 354.87,405.38 352.60,402.69
             350.71,400.44 351.01,396.77 351.00,394.00
             351.00,394.00 351.00,362.00 351.00,362.00
             351.00,362.00 351.00,219.00 351.00,219.00
             351.00,219.00 323.00,219.00 323.00,219.00 Z
           M 271.00,245.58
           C 274.03,244.96 283.93,244.01 285.98,246.60
             287.04,247.94 286.97,250.38 287.00,252.00
             287.00,252.00 287.00,298.00 287.00,298.00
             287.00,299.94 287.25,303.72 286.01,305.26
             283.12,308.84 269.79,307.21 266.85,304.06
             261.40,298.21 263.92,288.16 264.00,281.00
             264.00,281.00 264.00,258.00 264.00,258.00
             264.08,251.33 264.71,248.70 271.00,245.58 Z
           M 357.00,704.00" class="selected" fill-opacity="1"/>
  <path id="Selection #2"
        fill="#ffffff" stroke="#f8f8f2" stroke-width="6.5"
        d="M 316.00,344.00
           C 316.00,344.00 316.00,433.00 316.00,433.00
             316.02,444.94 321.77,446.34 329.72,454.28
             337.66,462.23 339.06,467.98 351.00,468.00
             351.00,468.00 418.00,468.00 418.00,468.00
             418.00,468.00 418.00,431.00 418.00,431.00
             417.95,428.78 417.98,427.07 416.99,425.00
             414.97,420.77 398.26,403.99 394.17,400.13
             389.79,396.00 388.51,397.41 386.59,395.41
             384.67,393.39 385.01,389.61 385.00,387.00
             385.00,387.00 385.00,248.00 385.00,248.00
             384.98,236.06 379.34,234.19 371.74,226.34
             363.95,218.26 361.99,212.02 350.00,212.00
             350.00,212.00 320.00,212.00 320.00,212.00
             320.00,212.00 320.00,143.00 320.00,143.00
             319.99,136.26 320.49,134.14 313.00,134.00
             313.00,134.00 267.00,134.00 267.00,134.00
             243.95,134.11 238.93,144.07 224.00,159.00
             213.06,169.94 206.03,173.62 206.00,190.00
             206.00,190.00 206.00,236.00 206.00,236.00
             206.03,241.47 206.46,244.00 208.90,249.00
             210.00,251.24 212.73,254.73 212.69,257.00
             212.65,259.33 209.35,263.46 208.19,266.00
             206.01,270.76 206.01,273.94 206.00,279.00
             206.00,279.00 206.00,336.00 206.00,336.00
             206.03,353.25 218.08,363.92 235.00,364.00
             235.00,364.00 287.00,364.00 287.00,364.00
             289.09,364.00 292.06,364.12 294.00,363.40
             298.45,361.76 310.16,348.25 316.00,344.00 Z
           M 315.00,140.00
           C 315.00,140.00 315.00,327.00 315.00,327.00
             315.00,329.30 315.38,333.41 313.40,334.98
             311.51,336.48 303.66,336.00 301.00,336.00
             301.00,336.00 267.00,336.00 267.00,336.00
             262.92,335.95 257.94,335.31 254.00,334.24
             234.65,329.03 236.00,315.99 236.00,300.00
             236.00,300.00 236.00,272.00 236.00,272.00
             236.00,257.74 232.83,241.77 247.00,233.00
             239.72,222.79 236.02,222.79 236.00,209.00
             236.00,209.00 236.00,163.00 236.00,163.00
             236.20,147.95 249.16,140.07 263.00,140.00
             263.00,140.00 315.00,140.00 315.00,140.00 Z
           M 273.00,169.65
           C 270.05,170.92 268.04,171.83 266.74,175.04
             265.87,177.19 266.00,180.65 266.00,183.00
             266.00,183.00 266.00,203.00 266.00,203.00
             266.01,206.25 265.72,210.10 267.74,212.85
             269.68,215.51 271.94,215.86 275.00,215.98
             281.81,216.26 283.86,216.13 284.00,209.00
             284.00,209.00 284.00,177.00 284.00,177.00
             283.99,175.18 284.15,172.08 282.98,170.60
             280.99,168.09 275.67,169.10 273.00,169.65 Z
           M 353.00,218.00
           C 353.00,218.00 353.00,393.00 353.00,393.00
             353.00,393.00 354.60,401.40 354.60,401.40
             354.60,401.40 361.00,403.00 361.00,403.00
             361.00,403.00 380.00,403.00 380.00,403.00
             380.00,403.00 385.98,404.60 385.98,404.60
             385.98,404.60 387.00,412.00 387.00,412.00
             387.00,412.00 387.00,436.00 387.00,436.00
             387.00,436.00 322.00,436.00 322.00,436.00
             322.00,436.00 322.00,218.00 322.00,218.00
             322.00,218.00 353.00,218.00 353.00,218.00 Z
           M 271.02,247.74
           C 265.52,250.85 266.01,253.20 266.00,259.00
             266.00,259.00 266.00,294.00 266.00,294.00
             266.04,296.75 266.01,299.46 267.74,301.78
             270.30,305.22 281.04,308.11 283.98,304.40
             285.23,302.81 285.00,298.99 285.00,297.00
             285.00,297.00 285.00,254.00 285.00,254.00
             284.90,248.81 284.56,247.25 279.00,247.02
             275.80,246.89 274.12,246.98 271.02,247.74 Z" />

</g></svg>